<svg width="64" height="64" viewBox="0 0 64 64" fill="none" xmlns="http://www.w3.org/2000/svg">
<circle cx="32" cy="32" r="31.5" fill="white" stroke="#E0DEF7"/>
<circle cx="32" cy="32" r="28" fill="#E0DEF7"/>
<g clip-path="url(#clip0_16_8080)">
<path fill-rule="evenodd" clip-rule="evenodd" d="M18.6665 31.9998H21.6294V42.3702C21.6294 43.156 21.9416 43.9097 22.4972 44.4653C23.0529 45.021 23.8065 45.3332 24.5924 45.3332H39.4072C40.193 45.3332 40.9466 45.021 41.5023 44.4653C42.058 43.9097 42.3701 43.156 42.3701 42.3702V31.9998H42.3702H45.3332L31.9998 18.6665L18.6665 31.9998Z" fill="white"/>
<path d="M21.6294 31.9998H22.6294C22.6294 31.4476 22.1817 30.9998 21.6294 30.9998V31.9998ZM18.6665 31.9998L17.9594 31.2927C17.6734 31.5787 17.5878 32.0088 17.7426 32.3825C17.8974 32.7562 18.262 32.9998 18.6665 32.9998V31.9998ZM22.4972 44.4653L23.2043 43.7582L22.4972 44.4653ZM41.5023 44.4653L40.7952 43.7582L40.7952 43.7582L41.5023 44.4653ZM42.3701 31.9998V30.9998C41.8179 30.9998 41.3701 31.4476 41.3701 31.9998H42.3701ZM45.3332 31.9998V32.9998C45.7376 32.9998 46.1023 32.7562 46.2571 32.3825C46.4118 32.0088 46.3263 31.5787 46.0403 31.2927L45.3332 31.9998ZM31.9998 18.6665L32.7069 17.9594C32.3164 17.5689 31.6833 17.5689 31.2927 17.9594L31.9998 18.6665ZM21.6294 30.9998H18.6665V32.9998H21.6294V30.9998ZM20.6294 31.9998V42.3702H22.6294V31.9998H20.6294ZM20.6294 42.3702C20.6294 43.4213 21.0469 44.4292 21.7901 45.1724L23.2043 43.7582C22.8362 43.3901 22.6294 42.8908 22.6294 42.3702H20.6294ZM21.7901 45.1724C22.5333 45.9156 23.5413 46.3332 24.5924 46.3332V44.3332C24.0717 44.3332 23.5725 44.1264 23.2043 43.7582L21.7901 45.1724ZM24.5924 46.3332H39.4072V44.3332H24.5924V46.3332ZM39.4072 46.3332C40.4582 46.3332 41.4662 45.9156 42.2094 45.1724L40.7952 43.7582C40.4271 44.1264 39.9278 44.3332 39.4072 44.3332V46.3332ZM42.2094 45.1724C42.9526 44.4292 43.3701 43.4213 43.3701 42.3702H41.3701C41.3701 42.8908 41.1633 43.3901 40.7952 43.7582L42.2094 45.1724ZM43.3701 42.3702V31.9998H41.3701V42.3702H43.3701ZM42.3702 30.9998H42.3701V32.9998H42.3702V30.9998ZM45.3332 30.9998H42.3702V32.9998H45.3332V30.9998ZM31.2927 19.3736L44.6261 32.7069L46.0403 31.2927L32.7069 17.9594L31.2927 19.3736ZM19.3736 32.7069L32.7069 19.3736L31.2927 17.9594L17.9594 31.2927L19.3736 32.7069Z" fill="white"/>
<path d="M28 34.0002L30.6667 36.6668L36 31.3335" stroke="#7065F0" stroke-width="2" stroke-linecap="round" stroke-linejoin="round"/>
</g>
<path d="M40 40H64V52C64 58.6274 58.6274 64 52 64C45.3726 64 40 58.6274 40 52V40Z" fill="#7065F0"/>
<path d="M56.3595 46.7801L52.6929 45.4068C52.3129 45.2668 51.6929 45.2668 51.3129 45.4068L47.6462 46.7801C46.9395 47.0468 46.3662 47.8734 46.3662 48.6268V54.0268C46.3662 54.5668 46.7195 55.2801 47.1529 55.6001L50.8195 58.3401C51.4662 58.8268 52.5262 58.8268 53.1729 58.3401L56.8395 55.6001C57.2729 55.2734 57.6262 54.5668 57.6262 54.0268V48.6268C57.6329 47.8734 57.0595 47.0468 56.3595 46.7801ZM52.4995 52.5801V54.3334C52.4995 54.6068 52.2729 54.8334 51.9995 54.8334C51.7262 54.8334 51.4995 54.6068 51.4995 54.3334V52.5801C50.8262 52.3668 50.3329 51.7401 50.3329 51.0001C50.3329 50.0801 51.0795 49.3334 51.9995 49.3334C52.9195 49.3334 53.6662 50.0801 53.6662 51.0001C53.6662 51.7468 53.1729 52.3668 52.4995 52.5801Z" fill="white"/>
<defs>
<clipPath id="clip0_16_8080">
<rect width="32" height="32" fill="white" transform="translate(16 16)"/>
</clipPath>
</defs>
</svg>
