<svg width="21" height="22" viewBox="0 0 21 22" fill="none" xmlns="http://www.w3.org/2000/svg">
<mask id="mask0_1_543" style="mask-type:luminance" maskUnits="userSpaceOnUse" x="3" y="2" width="15" height="18">
<path fill-rule="evenodd" clip-rule="evenodd" d="M3.44629 2.34692H17.8835V19.6677H3.44629V2.34692Z" fill="white"/>
</mask>
<g mask="url(#mask0_1_543)">
<path fill-rule="evenodd" clip-rule="evenodd" d="M10.6648 3.62332C9.94327 3.62332 5.3909 5.22644 4.86588 5.66465C4.71102 5.82037 4.70506 6.09096 4.73825 7.90255C4.75356 8.77559 4.77484 9.96176 4.77484 11.604C4.77484 16.0296 9.64375 17.9944 10.664 18.356C11.6834 17.9927 16.5549 16.0168 16.5549 11.604C16.5549 9.96006 16.5761 8.77303 16.5923 7.9C16.6246 6.09011 16.6187 5.81952 16.4544 5.65615C15.9396 5.22644 11.3864 3.62332 10.6648 3.62332ZM10.6649 19.6681C10.6028 19.6681 10.5407 19.6596 10.4803 19.6408C10.1952 19.5549 3.49855 17.46 3.49855 11.604C3.49855 9.97279 3.47727 8.79258 3.46196 7.92635C3.42282 5.76248 3.41431 5.3115 3.97336 4.7533C4.64132 4.08363 9.69999 2.34692 10.6649 2.34692C11.629 2.34692 16.6877 4.08363 17.3573 4.7533C17.9155 5.3115 17.907 5.76248 17.8679 7.9238C17.8526 8.79003 17.8313 9.97024 17.8313 11.604C17.8313 17.46 11.1346 19.5549 10.8496 19.6408C10.7892 19.6596 10.727 19.6681 10.6649 19.6681Z" fill="#1376F8"/>
</g>
<path fill-rule="evenodd" clip-rule="evenodd" d="M10.0639 13.0005C9.89459 13.0005 9.73206 12.9332 9.61209 12.8133L8.00216 11.2016C7.7537 10.9523 7.7537 10.5473 8.00301 10.2988C8.25148 10.0495 8.65651 10.0495 8.90583 10.2988L10.0639 11.4586L12.9298 8.59275C13.1791 8.34343 13.5824 8.34343 13.8318 8.59275C14.0811 8.84207 14.0811 9.24625 13.8318 9.49557L10.5149 12.8133C10.3958 12.9332 10.2333 13.0005 10.0639 13.0005Z" fill="#1376F8"/>
</svg>
