<svg width="40" height="40" viewBox="0 0 40 40" fill="none" xmlns="http://www.w3.org/2000/svg">
<path d="M30.5308 39.0316H19.1275C18.3734 39.0316 17.7481 38.4062 17.7481 37.6522C17.7481 36.8981 18.3734 36.2727 19.1275 36.2727H30.5308C32.4988 36.2727 34.43 34.6356 34.761 32.686L37.2072 18.0459C37.4279 16.7217 36.6924 14.8271 35.6624 13.9994L22.9164 3.81018C21.445 2.63307 18.9988 2.63305 17.5458 3.79177L4.79992 13.9994C3.75155 14.8454 3.03425 16.7217 3.25496 18.0459L3.76995 21.154C3.89869 21.9081 3.38373 22.6254 2.62964 22.7358C1.87555 22.8829 1.17666 22.3495 1.04792 21.5955L0.53293 18.5057C0.14669 16.2251 1.25025 13.3006 3.07109 11.8476L15.817 1.63979C18.2815 -0.346587 22.1623 -0.328177 24.6452 1.6582L37.3911 11.8476C39.1936 13.3006 40.2971 16.2251 39.9293 18.5057L37.4831 33.1459C36.9313 36.4013 33.823 39.0316 30.5308 39.0316Z" fill="#4361EE"/>
<path d="M7.3575 39.3811C6.60341 39.3811 5.99647 38.7741 5.97807 38.0384C5.9229 35.5554 4.286 33.9185 1.80303 33.8633C1.04894 33.845 0.441976 33.2196 0.460368 32.4471C0.478761 31.693 1.08571 31.1045 1.83979 31.1045H1.87656C5.83092 31.1965 8.66336 34.0105 8.73693 37.9648C8.75532 38.7189 8.14835 39.3627 7.39427 39.3811C7.37587 39.3811 7.37589 39.3811 7.3575 39.3811Z" fill="#4361EE"/>
<path d="M12.8752 39.3812C12.1211 39.3812 11.4958 38.7742 11.4958 38.0201C11.4774 36.8063 11.275 35.6475 10.9072 34.5624C9.96919 31.8771 7.96442 29.8905 5.27914 28.9341C4.19399 28.5479 3.03527 28.3458 1.82137 28.3458C1.06729 28.3458 0.441964 27.7204 0.460357 26.9479C0.460357 26.1939 1.0857 25.5869 1.83978 25.5869H1.85818C3.38474 25.6053 4.83772 25.8628 6.19875 26.341C9.67491 27.5733 12.2682 30.1666 13.5005 33.6428C13.9787 35.0038 14.2362 36.4752 14.2546 37.9834C14.2546 38.7558 13.6477 39.3812 12.8752 39.3812Z" fill="#4361EE"/>
<path d="M1.83924 39.8406C0.809264 39.8406 0 39.0129 0 38.0013C0 36.9898 0.827656 36.1621 1.83924 36.1621C2.85082 36.1621 3.67847 36.9898 3.67847 38.0013C3.67847 39.0129 2.86921 39.8406 1.83924 39.8406Z" fill="#4361EE"/>
</svg>
