<svg width="24" height="24" viewBox="0 0 24 24" fill="none" xmlns="http://www.w3.org/2000/svg">
<path fill-rule="evenodd" clip-rule="evenodd" d="M20.4604 20.4604H16.8518V14.1928C16.8518 12.3453 16.0576 11.7755 15.0561 11.7755C13.9856 11.7755 12.9324 12.5871 12.9324 14.2446V20.4604H9.32374V8.99568H12.7942V10.5842H12.846C13.1914 9.89353 14.4 8.68489 16.2647 8.68489C18.2849 8.68489 20.4604 9.85899 20.4604 13.364V20.4604ZM5.35252 7.38993C4.19568 7.38993 3.28058 6.52662 3.28058 5.31799C3.28058 4.12662 4.19568 3.24604 5.35252 3.24604C6.49209 3.24604 7.42446 4.12662 7.42446 5.31799C7.42446 6.52662 6.49209 7.38993 5.35252 7.38993ZM3.53957 20.4432H7.16547V8.97842H3.53957V20.4432ZM22.2388 0H1.77842C0.794245 0 0 0.794245 0 1.77842V22.2388C0 23.2058 0.794245 24 1.77842 24H22.2388C23.2058 24 24 23.2058 24 22.2388V1.77842C24 0.794245 23.2058 0 22.2388 0Z" fill="#007BFF"/>
</svg>
