<svg width="24" height="24" viewBox="0 0 24 24" fill="none" xmlns="http://www.w3.org/2000/svg">
<path d="M9 8V8C9 5.239 11.239 3 14 3V3C16.761 3 19 5.239 19 8V21" stroke="#C7D1FE" stroke-width="1.5" stroke-linecap="round" stroke-linejoin="round"/>
<path fill-rule="evenodd" clip-rule="evenodd" d="M11.4161 12.748H6.58407C5.50407 12.748 4.74107 11.69 5.08307 10.665V10.665C5.61307 9.073 7.10207 8 8.78007 8H9.22007C10.8971 8 12.3871 9.073 12.9171 10.665V10.665C13.2591 11.69 12.4961 12.748 11.4161 12.748V12.748Z" stroke="#C7D1FE" stroke-width="1.5" stroke-linecap="round" stroke-linejoin="round"/>
<path d="M9 20V21" stroke="#C7D1FE" stroke-width="1.5" stroke-linecap="round" stroke-linejoin="round"/>
<path d="M9 17V16" stroke="#C7D1FE" stroke-width="1.5" stroke-linecap="round" stroke-linejoin="round"/>
<path d="M15.0001 19.6494L14.4501 18.8194" stroke="#C7D1FE" stroke-width="1.5" stroke-linecap="round" stroke-linejoin="round"/>
<path d="M12.2401 15.4991L12.7901 16.3291" stroke="#C7D1FE" stroke-width="1.5" stroke-linecap="round" stroke-linejoin="round"/>
<path d="M5.75986 15.4991L5.20986 16.3291" stroke="#C7D1FE" stroke-width="1.5" stroke-linecap="round" stroke-linejoin="round"/>
<path d="M3.5499 18.8194L2.9999 19.6494" stroke="#C7D1FE" stroke-width="1.5" stroke-linecap="round" stroke-linejoin="round"/>
</svg>
